<?xml version="1.0" standalone="no"?><!DOCTYPE svg PUBLIC "-//W3C//DTD SVG 1.1//EN"
        "http://www.w3.org/Graphics/SVG/1.1/DTD/svg11.dtd">
<svg t="1763304481487" class="icon" viewBox="0 0 1024 1024" version="1.1" xmlns="http://www.w3.org/2000/svg" p-id="1974"
     xmlns:xlink="http://www.w3.org/1999/xlink" width="200" height="200">
    <path d="M857.6 327.68l-104.494545-34.210909a178.036364 178.036364 0 0 1-90.763637-66.56l-64-89.367273a104.96 104.96 0 0 0-23.272727-23.272727 106.123636 106.123636 0 0 0-148.48 23.272727l-64.930909 89.367273a179.665455 179.665455 0 0 1-90.763637 66.792727l-104.494545 33.978182a106.821818 106.821818 0 0 0-53.061818 162.909091l93.090909 128.930909a35.84 35.84 0 0 1 6.981818 21.643636v158.952728a109.381818 109.381818 0 0 0 5.12 33.512727 105.658182 105.658182 0 0 0 133.818182 67.956364l128-39.33091a107.985455 107.985455 0 0 1 64.232727 0l127.534546 39.33091a106.123636 106.123636 0 0 0 139.636363-101.469091v-158.254546a35.84 35.84 0 0 1 6.981818-21.643636l93.09091-128.930909a104.494545 104.494545 0 0 0 15.127272-29.556364 106.821818 106.821818 0 0 0-69.352727-134.050909z m-192 83.549091a34.909091 34.909091 0 0 1-48.174545 10.938182l-46.545455-29.090909a34.909091 34.909091 0 0 1 37.003636-59.112728l46.545455 29.090909a34.909091 34.909091 0 0 1 11.170909 48.174546z"
         fill="#ffffff" p-id="1975"></path>
</svg>