<?xml version="1.0" standalone="no"?><!DOCTYPE svg PUBLIC "-//W3C//DTD SVG 1.1//EN"
        "http://www.w3.org/Graphics/SVG/1.1/DTD/svg11.dtd">
<svg t="1763277882945" class="icon" viewBox="0 0 1024 1024" version="1.1" xmlns="http://www.w3.org/2000/svg" p-id="2138"
     xmlns:xlink="http://www.w3.org/1999/xlink" width="200" height="200">
    <path d="M865.047273 270.661818l-281.6-158.72a144.290909 144.290909 0 0 0-142.661818 0L158.952727 270.661818A130.094545 130.094545 0 0 0 93.090909 383.767273l35.84 421.003636A129.163636 129.163636 0 0 0 256 930.909091h512a129.629091 129.629091 0 0 0 128.232727-126.138182L930.909091 388.887273v-5.12a129.629091 129.629091 0 0 0-65.861818-113.105455z m-279.272728 482.210909h-146.152727a34.909091 34.909091 0 0 1 0-69.818182h145.687273a34.909091 34.909091 0 0 1 0 69.818182z"
          fill="#ffffff" p-id="2139"></path>
</svg>