<?xml version="1.0" standalone="no"?><!DOCTYPE svg PUBLIC "-//W3C//DTD SVG 1.1//EN" "http://www.w3.org/Graphics/SVG/1.1/DTD/svg11.dtd"><svg t="1763898525793" class="icon" viewBox="0 0 1024 1024" version="1.1" xmlns="http://www.w3.org/2000/svg" p-id="7744" xmlns:xlink="http://www.w3.org/1999/xlink" width="200" height="200"><path d="M778.24 536.112762a35.84 35.84 0 0 1-35.84-35.84V302.153143L348.696381 389.36381V789.211429c0 57.368381-42.179048 106.837333-100.693333 117.833142l-2.145524 0.341334c-76.409905 14.750476-147.748571-41.20381-147.748572-116.126476 0-56.612571 41.569524-105.008762 99.303619-116.053334l79.652572-15.408762V261.997714c0-48.030476 34.54781-89.575619 83.285333-100.254476L682.422857 90.35581c67.291429-14.726095 131.608381 34.011429 131.608381 100.254476v309.662476a35.84 35.84 0 0 1-35.815619 35.84z m-501.150476 193.828571l-65.609143 12.678096c-24.30781 4.486095-41.813333 25.063619-41.813333 48.713142 0 31.646476 29.988571 54.954667 62.147047 48.761905l2.096762-0.365714c25.088-4.778667 43.154286-25.721905 43.154286-50.41981v-59.392zM698.61181 157.281524L376.368762 228.693333c-15.920762 3.169524-27.477333 17.042286-27.745524 33.28v56.661334l393.801143-86.844953v-41.203809c0-22.016-21.406476-38.107429-43.788191-33.304381h-0.02438z" fill="#969799" p-id="7745"></path><path d="M694.710857 591.555048c-20.553143 0-37.229714 16.676571-37.229714 37.254095v97.865143h-97.889524a37.254095 37.254095 0 1 0 0 74.50819h97.865143v97.840762a37.254095 37.254095 0 1 0 74.50819 0v-97.840762h97.865143a37.254095 37.254095 0 0 0 0-74.50819h-97.865143V628.784762c0-20.577524-16.676571-37.254095-37.254095-37.254095z" fill="#969799" p-id="7746"></path></svg>