<?xml version="1.0" standalone="no"?><!DOCTYPE svg PUBLIC "-//W3C//DTD SVG 1.1//EN"
        "http://www.w3.org/Graphics/SVG/1.1/DTD/svg11.dtd">
<svg t="1761834428589" class="icon" viewBox="0 0 1024 1024" version="1.1" xmlns="http://www.w3.org/2000/svg" p-id="5222"
     xmlns:xlink="http://www.w3.org/1999/xlink" width="200" height="200">
    <path d="M511.952 957.512a30.848 30.848 0 0 1-21.872-9.064L79.624 538.008c-106.16-106.16-106.16-278.896-0.016-385.024l6.752-6.768c51.464-51.416 119.832-79.72 192.56-79.72s141.096 28.304 192.512 79.72l40.512 40.488 40.496-40.488c51.392-51.416 119.76-79.72 192.504-79.72 72.752 0 141.12 28.304 192.528 79.72l6.8 6.8c51.424 51.392 79.76 119.752 79.728 192.504 0 72.712-28.304 141.08-79.728 192.496l-410.456 410.448a30.832 30.832 0 0 1-21.864 9.048zM278.92 128.36c-56.208 0-109.048 21.872-148.784 61.6l-6.752 6.768C41.336 278.744 41.344 412.216 123.368 494.264l388.584 388.568 388.584-388.568c39.728-39.728 61.6-92.56 61.6-148.752 0-56.224-21.872-109.032-61.6-148.728l-6.8-6.832c-39.728-39.728-92.56-61.6-148.792-61.6-56.216 0-109.024 21.872-148.752 61.6l-62.376 62.352a30.928 30.928 0 0 1-43.744 0l-62.384-62.328c-39.72-39.744-92.56-61.616-148.768-61.616z"
          fill="#666d7e" p-id="5223"></path>
</svg>