<?xml version="1.0" standalone="no"?><!DOCTYPE svg PUBLIC "-//W3C//DTD SVG 1.1//EN" "http://www.w3.org/Graphics/SVG/1.1/DTD/svg11.dtd"><svg t="1762775356062" class="icon" viewBox="0 0 1024 1024" version="1.1" xmlns="http://www.w3.org/2000/svg" p-id="4637" xmlns:xlink="http://www.w3.org/1999/xlink" width="200" height="200"><path d="M153.83 602.23c-49.29 0-89.62-40.38-89.62-89.73s40.33-89.72 89.62-89.72 89.61 40.38 89.61 89.72-40.33 89.73-89.61 89.73z m358.45 0c-49.29 0-89.62-40.38-89.62-89.73s40.33-89.72 89.62-89.72c49.29 0 89.61 40.38 89.61 89.72s-40.32 89.73-89.61 89.73z m358.46 0c-49.29 0-89.61-40.38-89.61-89.73s40.33-89.72 89.61-89.72 89.62 40.38 89.62 89.72-40.33 89.73-89.62 89.73z" fill="#979494" p-id="4638"></path></svg>