<svg version="1.1" xmlns="http://www.w3.org/2000/svg" style="display: block;" viewBox="0 0 2048 2048" width="2048"
     height="2048" preserveAspectRatio="none">
    <path transform="translate(0,0)" fill="rgb(254,24,22)"
          d="M 991.542 1.43519 C 1258.52 -6.97787 1518.21 89.3186 1715.16 269.763 C 1915.83 453.651 2034.95 709.918 2046.17 981.866 C 2057.32 1252.67 1960.57 1516.82 1777.14 1716.36 C 1587.84 1922.34 1334.7 2034.59 1056.46 2046.56 C 789.168 2054.99 529.198 1958.46 332.18 1777.63 C 131.899 1593.78 13.0349 1337.77 1.8332 1066.13 C -9.31758 795.336 87.436 531.177 270.856 331.644 C 460.156 125.656 713.296 13.4064 991.542 1.43519 z"/>
    <path transform="translate(0,0)" fill="rgb(252,253,252)"
          d="M 770.601 788.351 C 797.909 786.246 856.739 789.4 884.08 791.409 C 957.148 796.779 1038.47 806.027 1110.62 820.327 C 1152.19 828.921 1193.43 839.038 1234.27 850.657 C 1345.59 881.63 1473.03 936.155 1535.11 1039.92 C 1585.59 1125.73 1579.83 1247.42 1541.43 1336.2 C 1449.21 1550.25 1177.38 1585.35 972.124 1562.67 C 819.081 1545.76 622.178 1500.29 514.407 1380.05 C 505.359 1369.95 493.699 1348.39 486.904 1335.99 C 448.631 1264.96 455.538 1180.42 456.938 1103.58 C 472.762 1128.91 502.604 1160.28 526.142 1179.32 C 569.588 1215.18 618.666 1243.6 671.388 1263.44 C 743.674 1289.88 816.862 1304.82 892.53 1317.6 C 974.856 1331.5 1056.98 1345.51 1138.51 1363.74 C 1166.75 1370.05 1197.1 1378.56 1225.58 1382.64 C 1241.61 1385.01 1257.88 1385.28 1273.98 1383.46 C 1322.39 1377.67 1366.61 1353.16 1397.18 1315.17 C 1428.69 1275.46 1439.77 1220.26 1433.71 1170.68 C 1429.37 1135.17 1415.06 1102.54 1389.5 1077.15 C 1298.4 986.687 1035.63 947.81 907.116 935.146 C 876.716 932.048 846.279 929.322 815.812 926.968 C 786.508 924.822 754.477 928.446 731.321 907.255 C 718.209 895.254 709.963 881.096 708.108 863.258 C 706.254 845.84 711.478 828.408 722.607 814.881 C 734.291 800.757 752.209 790.206 770.601 788.351 z"/>
    <path transform="translate(0,0)" fill="rgb(252,253,252)"
          d="M 941.603 481.417 C 974.794 480.192 1011.69 481.297 1045.41 484.197 C 1188.43 496.5 1345.37 534.315 1466.63 613.874 C 1490.72 629.569 1511.81 645.671 1531.09 667.232 C 1606.7 751.775 1594.73 858.846 1587.66 961.813 C 1580.92 952.73 1575.18 943.051 1568.51 934.011 C 1518.91 866.732 1448.43 814.968 1372.87 780.36 C 1340.11 765.354 1304.02 749.974 1269.53 739.455 C 1223.6 725.143 1177.03 712.954 1129.97 702.928 C 1020.33 679.94 779.908 644.943 682.161 697.84 C 642.562 718.761 613.212 754.932 600.896 797.991 C 587.148 845.321 591.769 900.275 616.247 943.425 C 637.097 980.181 672.053 1005.38 710.952 1020.58 C 724.754 1025.98 739.253 1029.43 753.491 1033.42 C 816.754 1047.5 876.832 1052.99 940.351 1061.3 C 1037.96 1074.07 1138.47 1091.58 1232.46 1121.21 C 1253.3 1129.03 1282.36 1134.52 1299.41 1149.12 C 1348.13 1190.85 1316.98 1269.66 1254.1 1271.06 C 1235.97 1271.46 1223.65 1264.7 1206.98 1259.48 C 1195.81 1256.03 1184.58 1252.77 1173.3 1249.69 C 1149.68 1243.4 1125.91 1237.67 1102.02 1232.5 C 1043.92 1220.96 985.512 1210.97 926.871 1202.55 C 800.13 1183.83 649.031 1167.43 550.306 1076.86 C 489.911 1020.52 460.113 949.094 457.649 867.322 C 449.012 580.664 698.158 489.391 941.603 481.417 z"/>
</svg>