<svg version="1.1" xmlns="http://www.w3.org/2000/svg" style="display: block;" viewBox="0 0 2048 1024" width="1024" height="512" preserveAspectRatio="none">
<path transform="translate(0,0)" fill="rgb(10,11,11)" d="M 1367.96 174.264 C 1382.49 175.81 1390.5 182.535 1395.63 195.88 C 1390.33 212.476 1374.79 232.095 1365.95 247.94 C 1327.44 316.907 1289.57 385.839 1254.33 456.582 C 1249.22 466.83 1243.08 476.846 1239.28 487.679 C 1256.11 480.584 1266.83 462.914 1282.91 453.688 C 1301.42 443.069 1366.22 380.135 1387.79 403.68 C 1397.96 414.776 1382.48 446.816 1376.75 460.134 C 1366.68 483.581 1356.73 505.615 1352.65 531.941 L 1360.31 538.3 C 1382.74 533.285 1418.24 519.592 1435.19 502.74 C 1440.72 495.298 1444.27 486.156 1449 478.213 C 1468.97 439.591 1541.53 388.072 1586.45 395.909 C 1631.11 403.701 1599.87 462.655 1575.2 480.306 C 1539.67 505.728 1517.42 516.812 1477.27 532.57 C 1476.64 532.816 1474.7 534.939 1474.89 535.84 C 1475.96 565.241 1505.52 561.424 1526.38 558.893 C 1579.16 552.157 1635.71 529.644 1676.5 495.661 C 1683.39 438.637 1709.23 384.191 1740.33 336.376 C 1768.5 293.765 1801.44 253.904 1843.99 224.945 C 1851.73 219.678 1868.86 218.197 1876.46 224.084 C 1894.15 237.781 1881.14 265.571 1874.63 281.009 C 1845.77 349.422 1795.39 409.641 1742.7 461.242 C 1733.82 469.941 1720.66 478.67 1713.65 488.605 L 1713.36 489.031 C 1714.27 510.897 1699.54 563.856 1740.22 559.421 C 1766.98 556.504 1790.53 530.028 1813.73 516.641 C 1809.51 513.576 1795.06 503.678 1798.11 497.607 C 1807.01 479.934 1828.01 492.604 1840.89 497.326 C 1847.73 499.835 1853.7 501.609 1860.17 504.38 C 1864 497.532 1869.36 484.335 1872.85 476.564 L 1902.38 409.596 C 1921.13 368.818 1941.6 328.853 1963.73 289.806 C 1982.43 256.357 1974.44 257.064 2007.81 235.231 C 2026.2 236.711 2032.76 237.543 2038.26 255.999 C 2031.04 272.743 2036.83 271.821 2024.22 288.1 C 1991.13 337.908 1960.87 389.532 1933.56 442.73 C 1924.68 459.703 1906.22 495.603 1900.57 512.617 C 1929.23 517.462 1988.94 508.819 2019.25 504.914 C 2023.99 504.304 2030.87 497.458 2036.54 497.008 C 2050.01 500.204 2046.59 509.415 2039.47 517.709 C 2033.35 524.842 2023.59 514.805 2020.11 515.53 C 2006.31 518.405 1992.9 522.509 1979.63 527.3 C 1958.42 531.091 1910.08 541.218 1890.05 540.151 C 1877.01 567.693 1865.19 606.553 1852.87 635.963 C 1835.11 678.356 1816.31 716.833 1797.02 758.061 C 1788.69 776.154 1780.07 794.116 1771.18 811.942 C 1764.77 824.906 1759.01 841.016 1746.71 848.918 C 1729.78 849.515 1720.36 848.278 1709.38 834.58 C 1711.64 810.326 1731.8 780.209 1741.57 757.954 C 1753.05 731.831 1765.76 706.254 1777.96 680.491 L 1823.15 584.935 C 1831.88 566.19 1841.25 544.211 1850.6 526.224 C 1840.99 521.877 1832.75 519.124 1822.82 515.741 C 1816.24 529.025 1780.85 566.013 1767.07 574.093 C 1753.16 582.244 1740.32 594.069 1722.57 590.206 C 1701.87 585.702 1685.72 570.967 1679.78 550.698 C 1677.92 544.316 1675.8 529.039 1672.54 524.262 C 1665.82 525.013 1646.73 538.493 1638.91 542.909 C 1598.79 565.578 1550.7 586.122 1504.11 588.611 C 1486.2 589.568 1454.89 582.146 1441.73 569.378 C 1430.3 558.279 1430.9 541.423 1430.84 526.601 C 1405.69 551.381 1377.55 579.361 1340.25 579.516 C 1300.04 576.124 1308.39 548.307 1314.35 522.021 C 1317.66 507.419 1340.65 455.85 1340.64 447.681 C 1337.83 446.848 1331.74 446.706 1329.4 448.693 C 1294.13 479.015 1260.57 513.302 1228.83 547.265 C 1215.32 561.718 1204.04 577.943 1189.27 592.303 C 1174.8 592.978 1161.2 588.235 1156.45 572.554 C 1155 567.785 1156.37 557.59 1158.44 553.112 C 1172.63 521.241 1191.55 490.475 1206.26 458.962 C 1236.27 394.673 1268.42 332.676 1305.25 272.013 C 1321.72 244.873 1335.59 214.656 1352.9 187.812 C 1358.56 179.038 1357.96 176.487 1367.96 174.264 z M 1735.99 436.311 C 1783.04 393.376 1827.4 333.528 1849.79 272.792 C 1849.73 272.272 1849.68 271.751 1849.62 271.23 C 1847.52 269.563 1846.19 269.882 1843.44 269.874 C 1828.61 281.731 1803.03 310.866 1793.55 326.463 C 1785.39 339.872 1728.49 424.086 1732.43 437.685 C 1734.94 437.603 1733.97 437.932 1735.99 436.311 z M 1496.75 499.789 C 1519.03 490.743 1539.8 478.804 1556.48 461.23 C 1561.08 456.383 1571.18 445.619 1568.5 438.5 C 1565.93 436.243 1564.77 435.765 1561.41 436.128 C 1535.4 442.4 1519.65 459.002 1502.56 478.812 C 1499.37 482.519 1487.8 496.938 1488.26 501.695 C 1491.09 501.107 1493.96 500.553 1496.75 499.789 z"/>
<path transform="translate(0,0)" fill="rgb(10,11,11)" d="M 191.072 367.648 C 196.987 373.099 202.349 373.098 208.239 382.803 C 217.734 398.45 208.986 399.941 195.592 405.77 C 185.492 410.164 175.801 412.635 165.889 417.368 C 151.638 423.455 84.0421 459.1 81.3771 471.236 C 90.9526 478.867 177.941 461.278 188.886 492.487 C 189.874 495.304 191.96 498.885 193.24 501.78 C 218.789 490.665 264.104 461.859 284.519 443.644 C 319.277 412.633 314.784 407.541 362.242 397.072 C 370.611 403.137 370.241 403.816 372.701 413.765 C 381.899 405.275 388.047 403.206 399.602 409.994 C 413.398 418.194 423.381 431.53 427.362 447.078 C 458.165 448.127 488.509 439.39 514.038 422.122 C 515.914 418.152 517.081 410.491 520.278 407.601 C 529.317 399.426 545.782 410.613 552.826 416.702 C 566.46 428.487 538.394 454.399 538.404 467.04 L 539.691 468.086 C 542.861 467.258 544.193 465.603 547.003 463.276 C 575.511 439.626 602.347 412.366 634.251 393.217 C 649.058 384.33 668.621 397.262 666.182 414.559 C 663.254 435.321 606.504 522.372 613.183 536.906 C 614.038 537.437 615.193 538.385 615.976 538.276 C 630.425 536.267 688.203 485.766 694.87 476.177 C 713.817 448.93 731.196 407.463 753.596 384.165 C 792.719 403.938 792.613 398.028 763.165 440.107 C 755.376 451.235 702.301 532.294 715.599 540.765 C 727.071 541.358 789.614 498.729 793.739 491.127 C 822.021 438.998 870.883 406.929 924.595 384.157 C 946.51 374.866 966.265 378.125 975.663 404.593 C 972.144 422.34 962.008 431.368 949.756 444.324 C 946.902 447.341 943.723 449.306 939.53 449.11 C 933.795 444.559 945.089 435.535 942.208 425.983 C 931.079 413.879 902.575 434.065 892.664 441.065 C 860.788 463.578 831.939 493.51 818.039 530.508 C 819.43 538.985 819.728 540.061 826.195 545.597 C 862.832 551.374 909.676 524.864 941.307 507.619 C 950.1 502.615 986.886 478.373 993.9 481.73 L 994.464 483.757 C 992.236 491.667 984.38 497.61 978.627 503.602 C 944.402 539.249 894.137 573.818 845.041 583.133 C 828.179 586.333 808.882 584.672 795.139 574.204 C 781.027 563.475 779.499 552.496 779.998 535.551 C 780.128 531.141 781.425 528.414 780.743 523.788 C 767.336 522.531 718.384 592.601 690.5 578.501 C 665.086 565.649 667.392 539.847 675.887 517.832 C 653.901 533.989 627.52 574.825 601.41 580.179 C 594.951 581.504 588.81 579.326 583.454 575.733 C 546.066 550.649 610.832 463.866 607.339 448.911 C 607.166 448.171 606.009 447.713 605.373 447.308 C 590.478 448.735 526.239 524.682 514.012 539.478 C 505.621 549.682 498.783 560.796 489.882 570.578 C 472.464 589.721 450.67 585.099 441.867 560.603 C 445.53 544.603 455.341 532.182 462.985 518.06 C 473.969 497.766 490.587 472.759 499.442 452.05 C 489.501 453.838 478.237 459.456 470.272 460.927 C 457.704 463.247 439.812 465.804 427.178 467.299 C 423.921 480.417 422.825 488.577 417.407 501.497 C 398.801 545.421 365.675 577.298 322.377 596.913 C 292.793 610.314 255.554 602.307 242.156 570.21 C 231.093 543.706 242.665 514.279 253.583 489.292 C 239.754 494.144 209.524 513.187 190.77 521.176 C 189.646 524.776 188.47 528.359 187.245 531.926 C 178.396 557.147 157.797 584.419 133.264 596.058 C 113.844 605.271 70.8827 611.486 50.3958 603.906 C 46.5204 602.472 43.2879 600.27 41.6137 596.379 C 38.8557 589.968 39.4299 581.304 42.9595 575.332 C 57.5727 550.608 142.21 515.071 146.855 502.827 C 143.942 494.134 72.6885 500.454 61.2744 497.384 C 45.3816 494.453 24.4402 467.641 41.6441 454.48 C 66.5034 435.462 164.845 368.115 191.072 367.648 z M 315.037 559.684 C 352.322 544.965 394.783 506.861 402.327 466.277 C 394.481 463.393 388.388 461.027 381.742 455.691 C 373.836 449.343 369.553 439.187 360.755 434.772 C 342.259 449.351 324.27 464.472 308.472 484.264 C 298.567 496.673 250.613 556.156 292.591 563.266 C 297.907 564.166 309.404 561.268 315.037 559.684 z M 83.4805 567.464 C 95.5487 572.448 126.941 543.214 126.627 535.089 C 115.769 539.667 88.4477 557.073 82.2705 566.817 L 82.898 567.63 L 83.4805 567.464 z"/>
<path transform="translate(0,0)" fill="rgb(10,11,11)" d="M 1137.07 369.081 C 1151.55 367.367 1171.91 389.906 1157.7 400.681 C 1149.41 406.973 1129.19 410.657 1119.76 415.546 C 1102.72 424.38 1045.02 453.875 1035.75 467.476 C 1036.3 469.882 1041.77 469.676 1044.2 469.879 C 1067.13 471.843 1091.76 468.782 1114.33 472.962 C 1169.03 483.091 1131.25 545.775 1109.66 569.403 C 1085.69 595.646 1056.11 599.901 1022.68 601.26 C 1010.32 602.319 1005.2 600.993 995.339 594.357 C 978.758 545.631 1092.33 517.989 1097.67 497.521 C 1095.72 493.143 1052.87 494.322 1045.2 494.265 C 1017.07 494.057 1000.53 492.616 995.361 460.785 C 996.16 458.698 996.992 456.568 998.078 454.611 C 1006.44 439.551 1101.79 384.023 1123.62 373.588 C 1127.89 371.55 1132.51 370.292 1137.07 369.081 z M 1035.89 565.8 C 1048.26 561.028 1075.51 544.14 1079.02 531.116 L 1078.39 530.05 L 1076.86 529.919 C 1065.61 534.96 1036.77 551.476 1032.8 562.736 C 1033.73 564.581 1034.08 564.64 1035.89 565.8 z"/>
<path transform="translate(0,0)" fill="rgb(10,11,11)" d="M 813.725 282.096 C 825.227 281.708 833.998 288.578 844.518 293.292 C 858.677 299.637 828.478 331.759 823.803 337.924 C 811.644 349.029 800.608 339.963 793.803 328.042 C 794.011 325.937 794.297 323.841 794.661 321.758 C 796.832 309.599 803.182 289.438 813.725 282.096 z"/>
</svg>