<svg version="1.1" xmlns="http://www.w3.org/2000/svg" style="display: block;" viewBox="0 0 2048 846" width="620" height="256" preserveAspectRatio="none">
<path transform="translate(0,0)" fill="rgb(35,35,35)" d="M 747.247 186.07 C 759.915 185.41 774.227 185.461 786.982 185.664 C 864.965 186.905 944.122 183.796 1021.98 186.066 C 1022.59 212.404 1021.86 240.142 1022.06 266.679 C 1000.95 267.737 972.007 266.84 950.042 267.025 C 950.52 274.936 950.243 286.77 950.279 294.939 C 972.037 294.91 997.386 294.319 1018.83 295.339 L 1018.87 529.903 C 1018.89 577.349 1020.22 631.961 1018.62 678.952 C 1007.77 679.175 996.396 679.019 985.5 679.034 L 802.201 679.061 L 753.33 679.065 C 745.993 679.066 732.241 679.522 725.48 678.299 C 721.983 669.132 727.296 595.074 727.773 581.901 L 735.072 383.487 C 735.907 359.717 733.577 335.7 736.605 311.967 C 737.353 306.104 738.798 300.935 739.525 295.054 C 758.05 294.903 790.831 293.988 808.255 295.565 C 807.795 284.86 808.561 277.352 810.358 266.864 L 731.784 266.757 C 734.489 252.556 737.478 238.437 740.211 224.234 C 742.526 212.203 744.159 197.752 747.247 186.07 z M 864.833 557.625 C 852.999 557.582 828.319 558.195 817.499 557.036 C 817.434 535.289 826.53 385.203 823.901 378.844 C 819.976 378.613 818.625 378.429 814.843 379.337 C 813.594 391.641 814.482 407.89 813.932 420.807 C 813.192 438.219 810.749 457.604 810.996 474.75 C 810.897 493.347 808.962 509.782 808.067 528.126 C 807.105 547.857 808.072 575.781 803.33 595.067 C 831.369 594.667 859.41 594.549 887.451 594.714 C 901.183 594.742 923.519 594.255 936.648 595.462 C 936.645 583.161 936.368 569.521 936.844 557.332 C 920.924 557.752 895.806 558.108 880.218 557.088 C 879.753 538.881 880.936 382.379 878.834 378.652 C 876.958 377.75 875.602 376.987 873.558 376.504 C 873.5 406.405 871.89 433.418 870.42 463.015 C 868.848 494.68 870.46 525.811 864.833 557.625 z M 935.975 472.844 C 935.991 463.692 936.852 381.941 935.774 379.24 C 932.135 378.431 929.302 378.191 925.955 377.535 C 927.38 398.903 925.692 423.523 926.238 445.149 C 926.437 452.998 925.511 466.058 927.032 473.18 C 929.489 474.585 933.973 475.195 935.975 472.844 z M 886.547 295.318 C 885.14 286.55 883.335 276.858 886.462 268.226 C 884.307 266.199 883.345 266.932 879.334 267.08 C 878.603 267.107 877.872 267.148 877.142 267.201 C 877.058 275.49 874.154 290.98 876.941 294.627 C 879.874 295.561 883.421 295.336 886.547 295.318 z"/>
<path transform="translate(0,0)" fill="rgb(35,35,35)" d="M 1095.57 424.534 C 1115.33 423.903 1138.52 424.63 1158.66 424.63 L 1291.3 424.615 L 1433.54 424.599 C 1461.03 424.599 1490.16 424.131 1517.53 424.969 C 1519.06 448.197 1517.69 478.013 1518 501.736 C 1518.78 561.957 1516.84 623.497 1518.45 683.662 C 1509.11 682.941 1494.01 683.34 1484.24 683.305 L 1173.74 683.326 L 1094.72 683.281 C 1089.06 683.265 1066.72 683.832 1063.2 681.67 C 1067.69 612.443 1079.21 541.188 1085.15 471.786 C 1086.28 458.612 1086.66 438.93 1089.43 426.551 C 1091.06 424.644 1092.48 425.038 1095.57 424.534 z M 1177.96 608.786 C 1254.56 609.15 1331.69 608.113 1408.19 608.967 C 1408.14 601.755 1408.01 594.464 1408.37 587.267 C 1363.59 586.656 1318.77 587.539 1274.01 587.053 C 1242.73 586.713 1209.37 588.467 1178.46 586.967 C 1178.47 594.243 1178.3 601.518 1177.96 608.786 z M 1184.79 519.716 L 1405.99 519.753 L 1407.62 518.944 C 1408.71 511.597 1407.99 504.572 1408.72 497.445 L 1263.02 497.358 C 1240.56 497.371 1212.73 498.154 1190.64 497.324 C 1189.71 497.596 1188.08 497.828 1187.91 498.465 C 1185.93 505.687 1186.74 511.563 1184.79 519.716 z"/>
<path transform="translate(0,0)" fill="rgb(35,35,35)" d="M 227.842 163.268 C 255.965 162.207 284.627 163.4 312.798 162.978 C 319.126 162.883 325.517 163.139 331.833 163.547 C 333.009 172.603 332.543 177.987 331.72 187.056 L 446.299 187.114 C 460.246 187.102 495.988 185.928 507.83 188.482 C 511.623 192.623 509.735 253.285 509.955 263.405 C 467.151 264.526 423.181 262.294 380.242 263.279 C 365.14 263.625 346.358 264.207 331.541 263.049 C 332.121 268.107 332.118 276.869 332.276 282.214 C 373.136 281.225 414.542 282.626 455.453 282.058 C 468.035 281.884 481.412 281.814 493.903 282.641 C 494.559 293.677 494.029 308.69 494.124 320.207 C 494.232 333.333 494.925 352.075 493.698 364.761 C 434.234 364.022 374.019 364.497 314.5 364.51 L 136.447 364.521 L 86.9311 364.51 C 76.9135 364.506 62.4785 364.918 52.9436 363.396 C 49.8613 357.698 65.6415 294.773 68.4679 282.914 C 77.7373 281.395 108.865 281.979 119.37 282.088 C 150.76 282.411 182.511 281.468 213.818 282.543 C 218.096 282.69 219.643 282.7 222.614 279.875 C 222.84 273.459 227.432 268.298 224.499 263.877 C 212.935 262.322 181.592 263.368 168.624 263.241 C 127.212 262.835 85.295 263.833 43.8801 263.132 C 44.3588 252.948 54.3275 196.732 59.0965 188.493 C 64.9153 184.366 200.529 189.323 222.743 186.716 C 224.918 182.661 220.542 170.885 224.036 165.086 C 224.563 164.212 226.693 163.693 227.842 163.268 z"/>
<path transform="translate(0,0)" fill="rgb(35,35,35)" d="M 609.485 163.138 C 625.583 162.685 670.267 162.156 684.967 163.958 C 685.82 177.129 685.273 206.747 681.582 218.867 L 728.838 219.04 C 726.447 247.193 728.93 289.118 728.094 319.473 C 715.916 319.966 690.987 319.88 679.21 318.995 C 677.856 340.485 678.968 366.255 678.647 388.094 L 675.714 513.106 C 674.918 550.129 670.508 587.604 669.569 624.789 C 669.368 632.75 669.47 679.08 667.769 683.147 C 644.691 683.802 612.809 683.719 589.758 682.914 L 599.253 403.622 C 600.067 383.904 599.254 363.181 600.357 343.264 C 600.847 334.413 599.458 328.853 601.084 319.326 C 590.819 319.898 562.014 320.136 552.894 318.91 C 553.364 310.891 555.656 301.658 556.661 293.584 C 559.503 270.75 565.804 242.816 566.917 220.291 C 575.592 218.3 594.591 218.809 604.254 218.816 C 603.23 208.014 604.753 174.537 607.497 164.191 L 609.485 163.138 z"/>
<path transform="translate(0,0)" fill="rgb(35,35,35)" d="M 1130.14 284.984 C 1168.47 284.132 1209.69 284.782 1248.15 284.904 C 1253.71 299.847 1258.07 316.838 1263.32 332.249 C 1292.15 331.161 1328.8 331.786 1357.76 332.248 C 1359.46 321.44 1366.12 294.654 1370.22 285.094 C 1406.45 283.91 1448.52 284.68 1485 284.976 C 1482.85 294.704 1471.76 325.336 1474.1 331.259 C 1477.28 333.223 1525.37 331.994 1533.72 332.668 C 1534.55 340.687 1534.2 358.245 1534.18 366.931 C 1534.14 379.893 1534.82 398.676 1533.41 411.114 L 1513.79 411.259 L 1195.88 411.18 C 1179 411.18 1070.09 412.654 1062.92 409.811 C 1060.42 404.382 1074.52 342.685 1076.73 332.36 C 1095.67 331.298 1123.56 331.682 1142.64 332.365 C 1138.62 323.097 1131.67 295.064 1130.14 284.984 z"/>
<path transform="translate(0,0)" fill="rgb(35,35,35)" d="M 1254.99 163.42 C 1284.36 161.749 1328.94 162.768 1359.03 163.166 C 1359.74 173.919 1359.32 185.178 1359.12 195.982 C 1398.77 195.319 1438.65 196.226 1478.31 195.835 C 1491.97 195.7 1505.87 195.733 1519.51 196.208 C 1521.07 216.281 1520.02 249.008 1519.65 269.856 C 1467.19 270.714 1412.86 269.999 1360.25 270 C 1273.04 270.018 1182.4 271.281 1095.45 269.75 C 1100.63 248.395 1106.26 218.082 1109.72 196.31 C 1126.86 194.897 1248.31 197.469 1252.66 194.612 C 1252.43 184.477 1247.24 171.131 1254.99 163.42 z"/>
<path transform="translate(0,0)" fill="rgb(35,35,35)" d="M 1640.13 483.247 L 1705.32 483.159 C 1717.99 483.144 1734.19 482.707 1746.58 483.801 C 1743.7 491.981 1738.95 501.162 1735.54 509.534 L 1702.91 588.67 C 1691.22 617.033 1677.86 655.79 1664.07 682.388 L 1661.25 683.156 C 1630.05 684.076 1584.58 683.969 1553.48 682.89 C 1571.7 636.897 1593.08 590.223 1612.48 544.568 C 1617.91 531.782 1632.76 492.366 1640.13 483.247 z"/>
<path transform="translate(0,0)" fill="rgb(35,35,35)" d="M 570.501 334.474 C 579.895 334.48 587.424 334.657 596.818 335.299 C 592.48 356.532 592.182 386.749 589.89 409.557 C 584.606 462.125 581.966 515.769 574.684 568.117 C 573.135 579.255 572.744 599.687 570.211 609.633 C 567.944 611.214 564.078 610.603 561.158 610.462 C 551.967 610.457 542.777 610.367 533.589 610.192 C 533.059 588.546 535.421 578.901 536.708 558.297 C 538.89 523.557 541.667 488.856 545.038 454.21 C 549.237 414.97 555.019 375.049 556.451 335.251 C 560.953 334.636 565.927 334.613 570.501 334.474 z"/>
<path transform="translate(0,0)" fill="rgb(35,35,35)" d="M 686.539 335.219 C 696.2 334.03 715.452 334.545 725.414 334.91 C 726.255 393.77 724.584 453.775 722.126 512.586 C 720.778 544.838 722.83 577.906 721.773 610.211 C 710.611 610.419 692.655 611.032 682.011 609.982 C 683.279 598.82 682.75 580.496 683.337 568.354 C 686.124 510.633 684.072 452.369 685.89 394.499 C 686.505 374.93 685.563 354.926 686.539 335.219 z"/>
<path transform="translate(0,0)" fill="rgb(35,35,35)" d="M 1648.34 178.449 C 1666.03 171.016 1734.49 173.126 1757.56 172.625 L 1871.41 169.227 L 1974.85 165.729 C 1992.4 164.983 2008.08 163.028 2026.2 163.059 C 2029.26 175.459 2028.31 243.809 2027.65 259.689 C 2020.31 260.227 2012.82 260.615 2005.5 261.292 C 1976.61 263.965 1947.46 262.254 1918.59 263.424 L 1814.17 267.041 C 1789.06 268.085 1767.75 269.909 1741.96 270.149 C 1739.99 280.642 1724.95 366.133 1725.7 368.297 C 1726.47 368.584 1774.68 368.637 1778.12 368.72 C 1778.35 343.666 1777.82 318.399 1778.37 293.377 C 1791.11 292.406 1807.12 292.965 1820.24 292.961 C 1841.75 292.807 1863.25 292.907 1884.75 293.261 C 1886.34 312.49 1885.28 348.332 1885.23 368.949 C 1908.6 366.993 1947.45 369.073 1971.76 368.385 C 1985.75 367.99 2035.99 367.744 2048 369.736 L 2048 464.212 C 2041.23 465.637 2005.71 465.09 1997.27 465.085 L 1885.22 465.14 C 1886.33 487.273 1885.42 516.977 1885.41 539.905 L 1885.47 683.805 C 1829.44 682.456 1770.94 684.875 1715.53 682.935 C 1719.94 658.984 1723.24 634.914 1726.95 610.847 C 1728.09 603.459 1729.83 597.001 1729.43 589.444 C 1743.53 588.293 1764.71 588.887 1778.63 590.132 C 1777.48 578.378 1778.07 545.938 1778.26 533.459 C 1778.57 512.93 1777.19 484.326 1778.7 465.067 L 1648.89 465.065 C 1638.96 465.062 1599.75 465.741 1591.9 463.772 C 1591.96 455.655 1594.94 446.695 1595.97 438.608 C 1599.42 411.777 1607.01 385.965 1612.39 359.676 C 1623 307.764 1630.83 255.053 1642.97 203.459 C 1644.93 195.144 1646.16 186.727 1648.34 178.449 z"/>
<path transform="translate(0,0)" fill="rgb(35,35,35)" d="M 51.3349 381.178 C 101.908 379.691 157.933 380.864 208.836 380.864 L 497.506 380.927 C 497.934 395.401 497.95 410.149 497.82 424.64 C 497.402 471.24 498.412 518.052 497.678 564.632 C 412.769 563.466 326.285 564.271 241.272 564.304 L 170.622 564.364 C 159.925 564.394 144.02 564.958 133.698 564.439 C 130.848 589.849 126.901 612.006 121.964 636.941 C 119.005 651.882 117.74 668.501 114.501 683.521 C 98.9796 683.452 6.85767 684.552 0 682.21 L 0 680.76 C 2.22409 677.458 3.13585 671.408 3.79463 667.373 C 13.268 609.348 22.0739 551.12 31.9514 493.168 C 36.7648 464.927 43.9299 436.603 47.0901 407.912 C 47.9045 400.517 51.225 387.915 51.3349 381.178 z M 146.417 485.144 C 159.437 483.768 208.385 483.925 222.692 484.942 C 224.518 481.893 220.061 472.127 225.843 457.813 L 151.051 457.742 C 149.973 467.709 148.907 475.274 146.417 485.144 z M 331.572 484.959 C 347.507 483.695 371.33 484.618 387.834 484.778 C 389.887 482.435 388.556 465.841 390.532 457.954 L 330.872 457.921 C 332.287 464.642 331.978 477.917 331.572 484.959 z"/>
<path transform="translate(0,0)" fill="rgb(35,35,35)" d="M 1944.94 683.256 C 1939.84 666.529 1934.87 629.671 1931.4 611.036 L 1916.19 528.906 C 1913.94 516.054 1910.35 497.126 1909.32 484.526 C 1917.04 481.944 1999.59 482.792 2011.74 483.7 C 2016.57 506.332 2043.58 672.98 2048 679.956 L 2048 682.897 C 2039.22 683.748 2020.56 683.376 2011.1 683.371 L 1944.94 683.256 z"/>
</svg>