<?xml version="1.0" standalone="no"?><!DOCTYPE svg PUBLIC "-//W3C//DTD SVG 1.1//EN"
        "http://www.w3.org/Graphics/SVG/1.1/DTD/svg11.dtd">
<svg t="1762004278402" class="icon" viewBox="0 0 1024 1024" version="1.1" xmlns="http://www.w3.org/2000/svg"
     p-id="15858" xmlns:xlink="http://www.w3.org/1999/xlink" width="200" height="200">
    <path d="M899.5 287.5c-11.3-19.4-36.1-26.1-55.7-14.8-19.4 11.3-26.1 36.2-14.8 55.7 49.1 84.7 62.2 183.5 37 278.1-25.2 94.6-85.7 173.7-170.4 222.8C520.7 930.6 296 870.7 194.7 695.8c-65.7-113.3-65.7-254.1 0-367.5 11.3-19.5 4.6-44.4-14.8-55.7-19.4-11.3-44.4-4.6-55.7 14.8C44 425.9 44 598 124.2 736.6 207.2 879.9 357.9 960 512.6 960c76.2 0 153.3-19.4 223.8-60.3 103.5-60 177.5-156.7 208.3-272.3 30.8-115.6 14.7-236.3-45.2-339.9z"
          fill="#7c828f" p-id="15859"></path>
    <path d="M480.1 536c17.5 17.5 45.9 17.5 63.4 0l0.1-0.1 126.6-126.6c17.5-17.5 17.5-45.9 0-63.4s-45.9-17.5-63.4 0l-50.2 50.2V108.8c0-24.7-20.1-44.8-44.8-44.8S467 84.1 467 108.8v287.3l-50.2-50.2c-17.5-17.5-45.9-17.5-63.4 0s-17.5 45.9 0 63.4L480.1 536z"
          fill="#7c828f" p-id="15860"></path>
</svg>