<?xml version="1.0" standalone="no"?><!DOCTYPE svg PUBLIC "-//W3C//DTD SVG 1.1//EN"
        "http://www.w3.org/Graphics/SVG/1.1/DTD/svg11.dtd">
<svg t="1762003220284" class="icon" viewBox="0 0 1024 1024" version="1.1" xmlns="http://www.w3.org/2000/svg" p-id="3063"
     xmlns:xlink="http://www.w3.org/1999/xlink" width="200" height="200">
    <path d="M512.397368 944.557189a120.667891 120.667891 0 0 0 30.982027-4.528184 120.734721 120.734721 0 0 0 19.734719-7.49941 120.651635 120.651635 0 0 0 13.974696-7.963607 121.650472 121.650472 0 0 0 13.06075-9.997407l328.993263-288.962093a294.183864 294.183864 0 0 0 43.847707-46.473945 294.465633 294.465633 0 0 0 17.65757-26.188329 296.150833 296.150833 0 0 0 14.702601-27.853662 293.526401 293.526401 0 0 0 25.20936-91.051362c1.154172-10.627777 1.730355-21.315158 1.715906-32.007959 0-10.047981-0.496709-20.099575-1.517222-30.096982a292.142839 292.142839 0 0 0-11.693444-57.33111 289.428096 289.428096 0 0 0-9.876391-26.981259 293.206701 293.206701 0 0 0-27.09505-49.922012 294.635418 294.635418 0 0 0-35.903967-43.517169 294.163995 294.163995 0 0 0-43.517169-35.903967 292.491439 292.491439 0 0 0-76.901464-36.980472 291.721991 291.721991 0 0 0-57.331111-11.691638 296.613225 296.613225 0 0 0-30.075307-1.526252 293.452346 293.452346 0 0 0-58.624362 5.904521 295.038204 295.038204 0 0 0-28.332309 7.248345 294.738372 294.738372 0 0 0-27.403913 10.004632 292.110327 292.110327 0 0 0-26.287672 12.676026A293.358423 293.358423 0 0 0 517.662488 197.076258c-1.759255 1.800798-3.507672 3.599789-5.266927 5.406005-1.750224-1.806216-3.507672-3.607014-5.259701-5.406005a291.470927 291.470927 0 0 0-21.687239-20.162792 293.461377 293.461377 0 0 0-48.36686-32.999572 293.734116 293.734116 0 0 0-82.022087-29.929003 293.56975 293.56975 0 0 0-58.624362-5.904521c-10.040756 0-20.086931 0.505741-30.082532 1.526252a291.5793 291.5793 0 0 0-57.329304 11.691638 292.039885 292.039885 0 0 0-52.669267 22.252585 294.219988 294.219988 0 0 0-24.234004 14.727887 296.165283 296.165283 0 0 0-22.630084 16.920634 295.496983 295.496983 0 0 0-20.878054 18.983333 294.657092 294.657092 0 0 0-35.903967 43.517169 293.177801 293.177801 0 0 0-14.727887 24.232198 292.345135 292.345135 0 0 0-12.367163 25.689814 290.195738 290.195738 0 0 0-17.119318 55.136558 293.739534 293.739534 0 0 0-4.457742 29.175811c-1.013287 9.995601-1.511803 20.049001-1.511803 30.096982a293.033304 293.033304 0 0 0 15.296846 93.784168 292.133808 292.133808 0 0 0 11.62842 29.275153 294.43854 294.43854 0 0 0 14.698988 27.853662 296.387448 296.387448 0 0 0 17.653958 26.188329 294.807008 294.807008 0 0 0 43.853125 46.473945l328.991458 288.962093a121.775101 121.775101 0 0 0 13.06075 9.997407 120.1766 120.1766 0 0 0 33.71122 15.463017 121.301873 121.301873 0 0 0 15.36187 3.276477c5.17481 0.753192 10.392968 1.174041 15.616546 1.251707z"
          fill="#fc3d4c" p-id="3064"></path>
</svg>