<?xml version="1.0" standalone="no"?><!DOCTYPE svg PUBLIC "-//W3C//DTD SVG 1.1//EN"
        "http://www.w3.org/Graphics/SVG/1.1/DTD/svg11.dtd">
<svg t="1762005488762" class="icon" viewBox="0 0 1344 1024" version="1.1" xmlns="http://www.w3.org/2000/svg" p-id="4360"
     xmlns:xlink="http://www.w3.org/1999/xlink" width="262.5" height="200">
    <path d="M67.22667 291.31557h224.0889c11.204445 0 44.81778 11.204445 56.022225 22.40889l78.431116 78.431115c22.40889 33.613335 67.22667 33.613335 100.840005 0 33.613335-22.40889 33.613335-67.22667 0-100.840005l-78.431115-78.431115c-33.613335-33.613335-100.840005-67.22667-156.862231-67.22667h-224.0889c-44.81778 0-67.22667 33.613335-67.22667 67.22667 0 44.81778 33.613335 78.431115 67.22667 78.431115z"
          fill="#7c828f" p-id="4361"></path>
    <path d="M907.560046 291.31557h123.248895v89.63556c0 22.40889 11.204445 33.613335 33.613335 22.40889l257.702236-168.066675c22.40889-11.204445 22.40889-33.613335 0-44.81778l-257.702236-168.066675c-22.40889-11.204445-33.613335 0-33.613335 22.40889v123.248895h-123.248895c-112.04445 0-134.45334 56.022225-212.884455 134.45334l-257.702235 369.746686c-44.81778 44.81778-179.27112 89.63556-246.497791 89.63556h-123.248895c-44.81778 0-67.22667 33.613335-67.22667 67.22667 0 44.81778 33.613335 67.22667 67.22667 67.22667h123.248895c112.04445 0 268.90668-56.022225 347.337796-134.45334l257.702235-369.746686c56.022225-56.022225 44.81778-100.840005 112.04445-100.840005z"
          fill="#7c828f" p-id="4362"></path>
    <path d="M1064.422276 627.448921c-22.40889-11.204445-33.613335 0-33.613335 22.40889v112.04445h-123.248895c-11.204445 0-44.81778-11.204445-56.022225-22.40889l-78.431115-78.431115c-22.40889-33.613335-67.22667-33.613335-100.840005 0-33.613335 22.40889-33.613335 67.22667 0 100.840005l78.431115 78.431115c33.613335 33.613335 100.840005 67.22667 156.86223 67.22667h123.248895v89.63556c0 22.40889 11.204445 33.613335 33.613335 22.40889l257.702236-168.066675c22.40889-11.204445 22.40889-33.613335 0-44.81778l-257.702236-179.27112z"
          fill="#7c828f" p-id="4363"></path>
</svg>