<?xml version="1.0" standalone="no"?><!DOCTYPE svg PUBLIC "-//W3C//DTD SVG 1.1//EN"
        "http://www.w3.org/Graphics/SVG/1.1/DTD/svg11.dtd">
<svg t="1762003224002" class="icon" viewBox="0 0 1024 1024" version="1.1" xmlns="http://www.w3.org/2000/svg" p-id="3216"
     xmlns:xlink="http://www.w3.org/1999/xlink" width="200" height="200">
    <path d="M496.782628 943.305482a120.340966 120.340966 0 0 1-62.13384-28.736901L105.65733 625.606488a294.807008 294.807008 0 0 1-43.853125-46.473945 296.387448 296.387448 0 0 1-17.653957-26.188329 294.021304 294.021304 0 0 1-14.698988-27.853662 291.790627 291.790627 0 0 1-11.628421-29.275153 293.033304 293.033304 0 0 1-15.296846-93.784168c0-10.047981 0.498516-20.099575 1.511803-30.096982a293.739534 293.739534 0 0 1 11.691638-57.33111 290.006085 290.006085 0 0 1 9.885422-26.981259 292.079622 292.079622 0 0 1 27.09505-49.922012 294.657092 294.657092 0 0 1 35.903968-43.517169 295.935893 295.935893 0 0 1 20.878054-18.983333 296.165283 296.165283 0 0 1 22.630083-16.920634 293.723278 293.723278 0 0 1 24.234004-14.727887 292.424609 292.424609 0 0 1 52.669267-22.252585 291.5793 291.5793 0 0 1 57.329304-11.691638 296.833583 296.833583 0 0 1 30.082532-1.526252 293.48847 293.48847 0 0 1 58.624362 5.904521 295.448215 295.448215 0 0 1 28.332309 7.248345 294.210957 294.210957 0 0 1 78.639044 37.928736 292.159095 292.159095 0 0 1 23.417594 17.751494 290.732184 290.732184 0 0 1 21.687239 20.162792c1.750224 1.800798 3.507672 3.599789 5.259702 5.406005 1.757448-1.806216 3.507672-3.607014 5.266926-5.406005a290.759278 290.759278 0 0 1 21.687239-20.162792 293.177801 293.177801 0 0 1 48.36686-32.999572 291.873713 291.873713 0 0 1 26.287671-12.676026 295.06891 295.06891 0 0 1 27.403914-10.004632 294.900932 294.900932 0 0 1 28.332308-7.248345 293.452346 293.452346 0 0 1 58.624362-5.904521c10.03895 0 20.085125 0.505741 30.075307 1.526252a291.721991 291.721991 0 0 1 110.000377 33.944223 292.984536 292.984536 0 0 1 24.232198 14.727887 294.163995 294.163995 0 0 1 43.517169 35.903967 294.648061 294.648061 0 0 1 50.62463 67.749367 290.374554 290.374554 0 0 1 12.374387 25.689814 290.132521 290.132521 0 0 1 9.876391 26.981259 292.142839 292.142839 0 0 1 11.693444 57.33111c1.018706 9.995601 1.517222 20.049001 1.517222 30.096982a293.311461 293.311461 0 0 1-6.854591 63.349424 293.871388 293.871388 0 0 1-20.070675 59.709897 295.728179 295.728179 0 0 1-14.702601 27.853662 294.855776 294.855776 0 0 1-17.65757 26.188329 294.183864 294.183864 0 0 1-43.847706 46.473945L590.151366 914.568581a121.417471 121.417471 0 0 1-13.06075 9.997407 120.689565 120.689565 0 0 1-13.974695 7.963607 120.570355 120.570355 0 0 1-35.103814 10.775887c-5.165779 0.753192-10.383937 1.174041-15.612933 1.251707a120.877412 120.877412 0 0 1-15.616546-1.251707z m15.61474-75.573896a44.66231 44.66231 0 0 0 5.940645-0.65385 43.233593 43.233593 0 0 0 7.797436-2.160235 39.014272 39.014272 0 0 0 4.141654-1.82789c1.081924-0.541865 2.136754-1.130691 3.162684-1.764674a45.061484 45.061484 0 0 0 6.030956-4.464966l329.415919-289.330561a235.749155 235.749155 0 0 0 9.256858-8.31582 215.658611 215.658611 0 0 0 23.58196-26.397851 216.420834 216.420834 0 0 0 32.464931-61.492633 216.357617 216.357617 0 0 0 6.236865-22.462105 216.38471 216.38471 0 0 0 3.789442-23.121375c0.852534-7.860653 1.264351-15.768268 1.264351-23.677689 0-7.466898-0.372081-14.939215-1.123466-22.369989a216.514758 216.514758 0 0 0-3.290926-21.539129 214.103459 214.103459 0 0 0-12.605584-40.619998 216.460571 216.460571 0 0 0-20.000233-36.839587 218.534107 218.534107 0 0 0-26.57486-32.212061 219.697311 219.697311 0 0 0-32.199417-26.573054 220.54262 220.54262 0 0 0-17.906828-10.877034 214.63268 214.63268 0 0 0-59.552757-21.730588 214.392453 214.392453 0 0 0-21.548161-3.28912 216.944637 216.944637 0 0 0-22.299546-1.125273c-7.304339 0-14.610483 0.366662-21.869666 1.096374a214.251569 214.251569 0 0 0-21.450625 3.262026 217.258919 217.258919 0 0 0-20.926822 5.350013 218.205376 218.205376 0 0 0-39.666315 16.752656 219.948375 219.948375 0 0 0-18.432437 11.270789 217.060235 217.060235 0 0 0-17.296327 13.104099 217.522626 217.522626 0 0 0-16.019333 14.895866c-20.1068 20.668533-40.213599 41.344291-60.318592 62.020048a244185.376774 244185.376774 0 0 0-60.313174-62.020048 215.963862 215.963862 0 0 0-33.322884-27.999965 218.113259 218.113259 0 0 0-18.427019-11.270789 217.963343 217.963343 0 0 0-39.662703-16.752656 217.600294 217.600294 0 0 0-20.930434-5.350013 214.659773 214.659773 0 0 0-21.448818-3.262026 219.061522 219.061522 0 0 0-21.869667-1.096374c-7.44703-0.007225-14.892253 0.366662-22.301352 1.125273a214.988505 214.988505 0 0 0-21.548161 3.28912 213.129908 213.129908 0 0 0-20.738975 5.330144 215.228732 215.228732 0 0 0-38.813781 16.400444 219.27285 219.27285 0 0 0-17.905022 10.877034 218.629837 218.629837 0 0 0-16.740013 12.52611 219.429991 219.429991 0 0 0-15.46663 14.046944 219.446247 219.446247 0 0 0-26.565829 32.212061 216.160739 216.160739 0 0 0-27.277478 56.72061 215.792271 215.792271 0 0 0-5.337369 20.738975 215.436446 215.436446 0 0 0-3.281895 21.539129 221.911732 221.911732 0 0 0-1.125273 22.369989c-0.007225 7.907615 0.41543 15.817036 1.266158 23.677689a215.90245 215.90245 0 0 0 10.0245 45.58348A216.601456 216.601456 0 0 0 123.07648 532.815739a215.310011 215.310011 0 0 0 23.578347 26.397851 236.094142 236.094142 0 0 0 9.258665 8.31582l329.414112 289.330561c0.957295 0.836278 1.939876 1.636432 2.958583 2.389624a41.806682 41.806682 0 0 0 6.236864 3.838209c1.342019 0.68275 2.72558 1.293251 4.132623 1.827891 0.745967 0.28177 1.497353 0.541865 2.255964 0.789317a44.245074 44.245074 0 0 0 11.48573 2.026574z"
          fill="#7c828f" p-id="3217"></path>
</svg>